<?xml version="1.0" encoding="utf-8"?>
<!-- Generator: Adobe Illustrator 26.2.1, SVG Export Plug-In . SVG Version: 6.00 Build 0)  -->
<svg version="1.1" id="Capa_1" xmlns="http://www.w3.org/2000/svg" xmlns:xlink="http://www.w3.org/1999/xlink" x="0px" y="0px"
	 viewBox="0 0 41.11 50" style="enable-background:new 0 0 41.11 50;" xml:space="preserve">
<style type="text/css">
	.st0{fill:none;stroke:#0AAFF1;stroke-width:15;stroke-miterlimit:10;}
	.st1{fill:#0AAFF1;}
	.st2{fill:#FFFFFF;}
	.st3{fill:#FFFFFF;stroke:#E0E5EE;stroke-miterlimit:10;}
	.st4{fill:#606060;}
	.st5{fill:none;stroke:#0084F6;stroke-width:11;stroke-miterlimit:10;}
	.st6{fill:#00B346;}
	.st7{fill:#00A3C8;}
	.st8{fill:none;stroke:#00A3C8;stroke-miterlimit:10;}
	.st9{fill:none;stroke:#FFFFFF;stroke-width:4;stroke-miterlimit:10;}
	.st10{fill:#606060;stroke:#606060;stroke-width:5;stroke-miterlimit:10;}
	.st11{fill:none;stroke:#FFFFFF;stroke-width:10;stroke-miterlimit:10;}
	.st12{fill:#606060;stroke:#FFFFFF;stroke-width:10;stroke-miterlimit:10;}
	.st13{fill:#E70027;}
	.st14{fill:#FFFFFC;}
	.st15{fill:#FFFFFF;stroke:#606060;stroke-width:10;stroke-miterlimit:10;}
	.st16{fill:none;stroke:#000000;stroke-width:10;stroke-miterlimit:10;}
	.st17{fill:#F2F5FA;}
	.st18{fill:#FF8A5C;}
	.st19{fill:#F8F8F8;stroke:#E0E5EE;stroke-miterlimit:10;}
	.st20{fill:none;stroke:#C6C6C6;stroke-miterlimit:10;}
	.st21{fill:#FF5470;}
	.st22{fill:none;stroke:#FFFFFF;stroke-width:7;stroke-miterlimit:10;}
	.st23{fill:#FF7523;}
	.st24{fill:none;stroke:#FFFFFF;stroke-miterlimit:10;}
	.st25{fill:none;stroke:#0AAFF1;stroke-linecap:round;stroke-linejoin:round;stroke-miterlimit:10;}
	.st26{fill:#0AAFF1;stroke:#FFFFFF;stroke-linecap:round;stroke-linejoin:round;stroke-miterlimit:10;}
	.st27{opacity:0.25;fill:#1E93D1;}
	.st28{fill:#1E93D1;}
	.st29{fill:#1C5392;}
	.st30{fill:none;stroke:#FFFFFF;stroke-linecap:round;stroke-linejoin:round;stroke-miterlimit:10;}
	.st31{fill:none;stroke:#0AAFF1;stroke-width:2;stroke-linecap:round;stroke-linejoin:round;stroke-miterlimit:10;}
	.st32{fill:none;stroke:#0AAFF1;stroke-width:4;stroke-linecap:round;stroke-linejoin:round;stroke-miterlimit:10;}
	.st33{fill:none;stroke:#FFFFFF;stroke-width:5;stroke-miterlimit:10;}
	.st34{fill:none;stroke:#FFFFFF;stroke-width:5;stroke-linecap:round;stroke-linejoin:round;stroke-miterlimit:10;}
	.st35{fill:none;stroke:#0AAFF1;stroke-width:24;stroke-miterlimit:10;}
	.st36{fill:none;stroke:#F2F5FA;stroke-width:10;stroke-miterlimit:10;}
	.st37{fill:#B8D637;}
	.st38{fill:#1D1D1B;}
	.st39{fill:#88898B;}
	.st40{fill:#9F9FA1;}
	.st41{fill:#D2D2D3;}
	.st42{fill:#F7F7F7;}
	.st43{fill:none;stroke:#FFFFFF;stroke-width:4;stroke-linecap:round;stroke-linejoin:round;stroke-miterlimit:10;}
	.st44{fill:#0AAFF1;stroke:#FFFFFF;stroke-width:1.5;stroke-linecap:round;stroke-linejoin:round;stroke-miterlimit:10;}
	.st45{fill:#FFFFFF;stroke:#0AAFF1;stroke-width:1.5;stroke-linecap:round;stroke-linejoin:round;stroke-miterlimit:10;}
	.st46{fill:#FFFFFF;stroke:#0AAFF1;stroke-width:3;stroke-linecap:round;stroke-linejoin:round;stroke-miterlimit:10;}
	.st47{fill:none;stroke:#0AAFF1;stroke-width:3;stroke-linecap:round;stroke-linejoin:round;stroke-miterlimit:10;}
	.st48{fill:none;}
	.st49{fill:#FFFFFF;stroke:#0AAFF1;stroke-width:1.5;stroke-miterlimit:10;}
	.st50{fill:#0AAFF1;stroke:#FFFFFF;stroke-width:1.5;stroke-miterlimit:10;}
	.st51{fill:none;stroke:#0AAFF1;stroke-width:2;stroke-miterlimit:10;}
	.st52{fill:#FFFFFF;stroke:#0AAFF1;stroke-width:2;stroke-miterlimit:10;}
	.st53{fill:#0AAFF1;stroke:#FFFFFF;stroke-miterlimit:10;}
	.st54{fill:none;stroke:#0AAFF1;stroke-miterlimit:10;}
	.st55{fill:#FFFFFF;stroke:#0AAFF1;stroke-miterlimit:10;}
	.st56{fill:none;stroke:#FFFFFF;stroke-width:2;stroke-miterlimit:10;}
	.st57{fill:#0AAFF1;stroke:#0AAFF1;stroke-width:3;stroke-miterlimit:10;}
	.st58{fill:none;stroke:#0AAFF1;stroke-width:4;stroke-miterlimit:10;}
	.st59{fill:none;stroke:#0AAFF1;stroke-width:2.25;stroke-miterlimit:10;}
	.st60{fill:#1FB900;}
	.st61{fill:none;stroke:#0AAFF1;stroke-width:13;stroke-linecap:round;stroke-linejoin:round;stroke-miterlimit:10;}
	.st62{fill:none;stroke:#FFFFFF;stroke-width:1.5;stroke-linecap:round;stroke-linejoin:round;stroke-miterlimit:10;}
	.st63{fill:#F7FAF9;}
	.st64{fill:none;stroke:#FFFFFF;stroke-width:0.5;stroke-miterlimit:10;}
	.st65{fill:#FFFFFF;stroke:#0AAFF1;stroke-width:3;stroke-miterlimit:10;}
	.st66{fill:#606060;stroke:#0AAFF1;stroke-width:15;stroke-miterlimit:10;}
	.st67{fill:none;stroke:#FFFFFF;stroke-width:1.5;stroke-miterlimit:10;}
	.st68{fill:none;stroke:#0AAFF1;stroke-width:8;stroke-miterlimit:10;}
	.st69{fill:#FFFFFF;stroke:#0AAFF1;stroke-width:0.75;stroke-linecap:round;stroke-linejoin:round;stroke-miterlimit:10;}
	.st70{fill:none;stroke:#0AAFF1;stroke-width:10;stroke-linecap:round;stroke-linejoin:round;stroke-miterlimit:10;}
	.st71{fill:none;stroke:#E70027;stroke-width:10;stroke-linecap:round;stroke-linejoin:round;stroke-miterlimit:10;}
	.st72{opacity:0.5;fill:none;stroke:#E70027;stroke-width:10;stroke-miterlimit:10;}
	.st73{opacity:0.5;fill:#E70027;}
	.st74{fill:none;stroke:#FFFFFC;stroke-width:10;stroke-linecap:round;stroke-linejoin:round;stroke-miterlimit:10;}
	.st75{fill:none;stroke:#606060;stroke-width:15;stroke-linecap:round;stroke-linejoin:round;stroke-miterlimit:10;}
	.st76{fill:#606060;stroke:#FFFFFF;stroke-width:7;stroke-miterlimit:10;}
	.st77{fill:#0AAFF1;stroke:#0AAFF1;stroke-miterlimit:10;}
	.st78{fill:none;stroke:#606060;stroke-width:10;stroke-linecap:round;stroke-linejoin:round;stroke-miterlimit:10;}
	.st79{fill:none;stroke:#FFFFFF;stroke-width:7;stroke-miterlimit:10;stroke-dasharray:5.8286,5.8286;}
	.st80{fill:none;stroke:#000000;stroke-width:19;stroke-miterlimit:10;}
	.st81{fill:#0AAFF1;stroke:#FFFFFF;stroke-width:2;stroke-miterlimit:10;}
	.st82{fill:#45B8FF;}
	.st83{opacity:0.5;fill:none;stroke:#45B8FF;stroke-width:1.75;stroke-miterlimit:10;}
	.st84{fill:none;stroke:#000000;stroke-width:1.75;stroke-miterlimit:10;}
	.st85{fill:none;stroke:#000000;stroke-width:1.5;stroke-miterlimit:10;}
	.st86{fill:none;stroke:#0AAFF1;stroke-width:1.75;stroke-miterlimit:10;}
	.st87{fill:none;stroke:#0AAFF1;stroke-width:1.75;stroke-linecap:round;stroke-linejoin:round;stroke-miterlimit:10;}
	.st88{fill:#FFFFFC;stroke:#FFFFFC;stroke-width:3;stroke-miterlimit:10;}
	.st89{fill:none;stroke:#000000;stroke-width:2;stroke-miterlimit:10;}
	.st90{fill:none;stroke:#FFFFFF;stroke-width:2;stroke-linecap:round;stroke-linejoin:round;stroke-miterlimit:10;}
	.st91{fill:#00A3C8;stroke:#606060;stroke-width:5;stroke-miterlimit:10;}
	.st92{fill:#0084F6;}
	.st93{fill:#CDCDC9;}
	.st94{fill-rule:evenodd;clip-rule:evenodd;fill:#FFFFFF;}
	.st95{fill:none;stroke:#0AAFF1;stroke-width:5;stroke-miterlimit:10;}
	.st96{fill:none;stroke:#0AAFF1;stroke-width:5;stroke-linecap:round;stroke-linejoin:round;stroke-miterlimit:10;}
	.st97{fill:#FFFFFF;stroke:#0AAFF1;stroke-width:5;stroke-linecap:round;stroke-linejoin:round;stroke-miterlimit:10;}
	.st98{fill:none;stroke:#0AAFF1;stroke-width:3;stroke-miterlimit:10;}
	.st99{fill:#0AAFF1;stroke:#0AAFF1;stroke-width:6;stroke-linecap:round;stroke-linejoin:round;stroke-miterlimit:10;}
	.st100{fill:#00D06F;}
	.st101{fill:#0AAFF1;stroke:#0AAFF1;stroke-width:6;stroke-miterlimit:10;}
	.st102{fill:none;stroke:#0AAFF1;stroke-width:2.5;stroke-linecap:round;stroke-linejoin:round;stroke-miterlimit:10;}
	.st103{fill:#FFFF00;stroke:#000000;stroke-width:3;stroke-miterlimit:10;}
	.st104{fill:#53FC00;}
	.st105{fill:#80A51B;}
	.st106{fill:none;stroke:#80A51B;stroke-width:0.999;}
	.st107{fill:none;stroke:#000000;stroke-width:0.75;stroke-miterlimit:10;}
	.st108{opacity:0.4;}
	.st109{fill:#0078D4;}
	.st110{fill:#45D7FA;}
	.st111{fill:#189AE1;}
	.st112{fill:none;stroke:#606060;stroke-width:13;stroke-linecap:round;stroke-linejoin:round;stroke-miterlimit:10;}
	.st113{fill:none;stroke:#FFFFFF;stroke-width:7;stroke-linecap:round;stroke-linejoin:round;stroke-miterlimit:10;}
	.st114{fill:#FFFFFF;stroke:#FFFFFF;stroke-miterlimit:10;}
	.st115{fill:#DADADA;}
	.st116{fill:none;stroke:#20FF77;stroke-miterlimit:10;}
</style>
<g>
	<path class="st2" d="M19.11,9.52c8.92-0.01,15.41,5.75,16.42,13.34c0.28,2.14,0.02,4.21-0.39,6.29c-0.67,3.38,0.26,6.31,2.58,8.84
		c0.35,0.38,0.59,0.97,0.63,1.47c0.02,0.29-0.45,0.84-0.76,0.88c-0.47,0.06-1.12-0.07-1.45-0.37c-2.13-1.98-3.44-4.45-3.64-7.34
		c-0.12-1.68,0-3.44,0.35-5.09c1.27-6.05-2.17-12.45-8.02-14.67c-5.88-2.23-12.59,0.28-15.52,5.93c-1.35,2.61-3.05,4.81-5.69,6.19
		c-0.58,0.3-1.19,0.56-1.81,0.77c-0.8,0.26-1.46-0.04-1.71-0.69c-0.27-0.71,0.03-1.45,0.82-1.72c2.82-0.96,4.61-2.93,5.99-5.53
		C9.76,12.44,14.33,9.71,19.11,9.52z"/>
	<path class="st2" d="M20.44,4.66c7.77,0.02,15.09,5.06,17.98,12.36c0.4,1,0.21,1.73-0.54,2.07c-0.76,0.34-1.41-0.03-1.87-1.11
		c-1.73-4-4.45-7.11-8.39-9.02c-7.27-3.52-15.65-1.43-20.51,5.05c-1.14,1.52-2.28,3-3.89,4.05c-0.55,0.36-1.17,0.52-1.66,0.05
		c-0.3-0.29-0.45-0.84-0.46-1.27c0-0.29,0.35-0.61,0.6-0.87c0.96-1,2.09-1.88,2.89-2.99C8.39,7.78,14.25,4.65,20.44,4.66z"/>
	<path class="st2" d="M26.53,25.38c0.05,1.46-0.83,2.93-1.63,4.4c-0.91,1.65-1.91,3.24-2.92,4.83c-0.57,0.89-1.25,1.05-1.93,0.58
		c-0.66-0.45-0.68-1.18-0.18-2.04c1.26-2.17,2.56-4.32,3.71-6.55c0.91-1.74,0.12-3.83-1.59-4.67c-1.76-0.86-3.75-0.26-4.67,1.54
		c-2.74,5.35-6.45,9.87-11.28,13.47c-0.53,0.39-1.06,0.77-1.61,1.13c-0.75,0.5-1.56,0.4-1.97-0.21c-0.42-0.63-0.23-1.41,0.51-1.91
		c4.25-2.86,7.75-6.46,10.44-10.83c0.55-0.9,1.04-1.84,1.53-2.77c1.39-2.62,4.11-3.89,6.9-3.21C24.59,19.83,26.5,22.24,26.53,25.38z
		"/>
	<path class="st2" d="M27.21,31.79c0.18-0.86,0.38-2.43,0.86-3.9c1.15-3.56,0.04-7.26-2.98-9.44c-2.86-2.07-6.77-1.98-9.67,0.22
		c-0.16,0.12-0.31,0.26-0.47,0.37c-0.61,0.44-1.34,0.39-1.78-0.1c-0.48-0.53-0.47-1.3,0.12-1.83c1.86-1.71,4.08-2.61,6.59-2.72
		c7.57-0.33,13.03,6.9,10.67,14.1c-1.71,5.21-0.2,10.1,4.15,13.52c0.7,0.55,0.87,1.34,0.43,1.93c-0.44,0.58-1.28,0.65-1.99,0.12
		C29.31,41.15,27.4,37.28,27.21,31.79z"/>
	<path class="st2" d="M3.17,8.71c0.26-0.44,0.4-0.79,0.63-1.05C12.94-2.48,27.65-2.6,36.97,7.57c0.66,0.72,0.68,1.52,0.09,2.04
		c-0.61,0.53-1.31,0.43-2.01-0.32c-2.92-3.13-6.38-5.37-10.6-6.25C17.29,1.55,11.29,3.8,6.19,8.85C5.91,9.13,5.68,9.53,5.34,9.67
		c-0.38,0.16-0.92,0.26-1.27,0.1C3.7,9.6,3.48,9.1,3.17,8.71z"/>
	<path class="st2" d="M23.99,39.83c-1.72,2.86-3.68,5.3-6.08,7.37c-0.69,0.6-1.41,1.16-2.14,1.71c-0.73,0.55-1.53,0.48-1.97-0.13
		c-0.44-0.6-0.29-1.4,0.43-1.93c3.83-2.81,6.75-6.36,8.72-10.69c0.33-0.72,0.93-1.11,1.73-0.97c0.82,0.14,1.3,0.68,1.38,1.52
		c0.33,3.4,1.86,6.12,4.58,8.18c0.74,0.56,0.88,1.3,0.41,1.93c-0.47,0.62-1.21,0.68-1.97,0.13c-2.1-1.54-3.62-3.53-4.61-5.94
		C24.33,40.67,24.19,40.33,23.99,39.83z"/>
	<path class="st2" d="M6.04,43.21c-0.38-0.38-0.85-0.68-1.06-1.1c-0.31-0.62,0.04-1.14,0.57-1.53c1.24-0.92,2.51-1.79,3.68-2.78
		c4.23-3.57,7.49-7.88,9.84-12.88c0.46-0.97,1.13-1.33,1.86-0.97c0.78,0.38,0.94,1.07,0.49,2.04c-3.18,6.76-7.87,12.25-14.03,16.48
		C7.03,42.7,6.61,42.89,6.04,43.21z"/>
	<path class="st2" d="M13.09,21.48c-0.2,0.48-0.28,0.75-0.42,0.99c-2.42,4.22-5.82,7.42-10.17,9.61c-0.77,0.39-1.5,0.17-1.83-0.5
		c-0.34-0.68-0.11-1.41,0.65-1.79c3.94-1.97,6.98-4.89,9.17-8.7c0.36-0.63,0.93-0.93,1.58-0.63C12.5,20.66,12.78,21.15,13.09,21.48z
		"/>
	<path class="st2" d="M40.17,24.84c-0.08,1.17-0.15,2.11-0.21,3.05c-0.13,1.75,0.17,3.41,0.94,4.99c0.42,0.86,0.19,1.6-0.56,1.94
		c-0.69,0.31-1.36-0.02-1.78-0.87c-1.08-2.19-1.3-4.51-1.15-6.92c0.09-1.56-0.02-3.13-0.08-4.7c-0.04-0.83,0.29-1.4,1.01-1.55
		c0.7-0.15,1.35,0.25,1.49,1.05C40,22.9,40.08,23.99,40.17,24.84z"/>
	<path class="st2" d="M18.27,36.04c0.4,0.33,0.93,0.57,1.05,0.93c0.13,0.41,0.05,1.07-0.21,1.39c-1.09,1.31-2.23,2.6-3.47,3.78
		c-1.51,1.43-3.14,2.73-4.72,4.09c-0.11,0.09-0.23,0.17-0.35,0.25c-0.69,0.43-1.4,0.34-1.82-0.24c-0.43-0.58-0.35-1.34,0.29-1.82
		c3.01-2.25,5.7-4.82,8.14-7.68C17.41,36.46,17.82,36.32,18.27,36.04z"/>
	<path class="st2" d="M23.59,47.86c-0.55,0.57-1.03,1.1-1.54,1.6c-0.7,0.68-1.38,0.72-1.97,0.16c-0.56-0.53-0.51-1.29,0.11-1.97
		c0.75-0.82,1.49-1.66,2.22-2.49c0.74-0.83,1.7-0.82,2.42,0.05c0.64,0.77,1.28,1.53,1.92,2.3c0.52,0.63,0.52,1.33,0,1.84
		c-0.55,0.53-1.28,0.5-1.89-0.11C24.44,48.81,24.05,48.36,23.59,47.86z"/>
</g>
</svg>
