<?xml version="1.0" encoding="utf-8"?>
<!-- Generator: Adobe Illustrator 26.2.1, SVG Export Plug-In . SVG Version: 6.00 Build 0)  -->
<svg version="1.1" id="Capa_1" xmlns="http://www.w3.org/2000/svg" xmlns:xlink="http://www.w3.org/1999/xlink" x="0px" y="0px"
	 viewBox="0 0 50 39.69" style="enable-background:new 0 0 50 39.69;" xml:space="preserve">
<style type="text/css">
	.st0{fill:none;stroke:#0AAFF1;stroke-width:15;stroke-miterlimit:10;}
	.st1{fill:#0AAFF1;}
	.st2{fill:#FFFFFF;}
	.st3{fill:#FFFFFF;stroke:#E0E5EE;stroke-miterlimit:10;}
	.st4{fill:#606060;}
	.st5{fill:none;stroke:#0084F6;stroke-width:11;stroke-miterlimit:10;}
	.st6{fill:#00B346;}
	.st7{fill:#00A3C8;}
	.st8{fill:none;stroke:#00A3C8;stroke-miterlimit:10;}
	.st9{fill:none;stroke:#FFFFFF;stroke-width:4;stroke-miterlimit:10;}
	.st10{fill:#606060;stroke:#606060;stroke-width:5;stroke-miterlimit:10;}
	.st11{fill:none;stroke:#FFFFFF;stroke-width:10;stroke-miterlimit:10;}
	.st12{fill:#606060;stroke:#FFFFFF;stroke-width:10;stroke-miterlimit:10;}
	.st13{fill:#E70027;}
	.st14{fill:#FFFFFC;}
	.st15{fill:#FFFFFF;stroke:#606060;stroke-width:10;stroke-miterlimit:10;}
	.st16{fill:none;stroke:#000000;stroke-width:10;stroke-miterlimit:10;}
	.st17{fill:#F2F5FA;}
	.st18{fill:#FF8A5C;}
	.st19{fill:#F8F8F8;stroke:#E0E5EE;stroke-miterlimit:10;}
	.st20{fill:none;stroke:#C6C6C6;stroke-miterlimit:10;}
	.st21{fill:#FF5470;}
	.st22{fill:none;stroke:#FFFFFF;stroke-width:7;stroke-miterlimit:10;}
	.st23{fill:#FF7523;}
	.st24{fill:none;stroke:#FFFFFF;stroke-miterlimit:10;}
	.st25{fill:none;stroke:#0AAFF1;stroke-linecap:round;stroke-linejoin:round;stroke-miterlimit:10;}
	.st26{fill:#0AAFF1;stroke:#FFFFFF;stroke-linecap:round;stroke-linejoin:round;stroke-miterlimit:10;}
	.st27{opacity:0.25;fill:#1E93D1;}
	.st28{fill:#1E93D1;}
	.st29{fill:#1C5392;}
	.st30{fill:none;stroke:#FFFFFF;stroke-linecap:round;stroke-linejoin:round;stroke-miterlimit:10;}
	.st31{fill:none;stroke:#0AAFF1;stroke-width:2;stroke-linecap:round;stroke-linejoin:round;stroke-miterlimit:10;}
	.st32{fill:none;stroke:#0AAFF1;stroke-width:4;stroke-linecap:round;stroke-linejoin:round;stroke-miterlimit:10;}
	.st33{fill:none;stroke:#FFFFFF;stroke-width:5;stroke-miterlimit:10;}
	.st34{fill:none;stroke:#FFFFFF;stroke-width:5;stroke-linecap:round;stroke-linejoin:round;stroke-miterlimit:10;}
	.st35{fill:none;stroke:#0AAFF1;stroke-width:24;stroke-miterlimit:10;}
	.st36{fill:none;stroke:#F2F5FA;stroke-width:10;stroke-miterlimit:10;}
	.st37{fill:#B8D637;}
	.st38{fill:#1D1D1B;}
	.st39{fill:#88898B;}
	.st40{fill:#9F9FA1;}
	.st41{fill:#D2D2D3;}
	.st42{fill:#F7F7F7;}
	.st43{fill:none;stroke:#FFFFFF;stroke-width:4;stroke-linecap:round;stroke-linejoin:round;stroke-miterlimit:10;}
	.st44{fill:#0AAFF1;stroke:#FFFFFF;stroke-width:1.5;stroke-linecap:round;stroke-linejoin:round;stroke-miterlimit:10;}
	.st45{fill:#FFFFFF;stroke:#0AAFF1;stroke-width:1.5;stroke-linecap:round;stroke-linejoin:round;stroke-miterlimit:10;}
	.st46{fill:#FFFFFF;stroke:#0AAFF1;stroke-width:3;stroke-linecap:round;stroke-linejoin:round;stroke-miterlimit:10;}
	.st47{fill:none;stroke:#0AAFF1;stroke-width:3;stroke-linecap:round;stroke-linejoin:round;stroke-miterlimit:10;}
	.st48{fill:none;}
	.st49{fill:#FFFFFF;stroke:#0AAFF1;stroke-width:1.5;stroke-miterlimit:10;}
	.st50{fill:#0AAFF1;stroke:#FFFFFF;stroke-width:1.5;stroke-miterlimit:10;}
	.st51{fill:none;stroke:#0AAFF1;stroke-width:2;stroke-miterlimit:10;}
	.st52{fill:#FFFFFF;stroke:#0AAFF1;stroke-width:2;stroke-miterlimit:10;}
	.st53{fill:#0AAFF1;stroke:#FFFFFF;stroke-miterlimit:10;}
	.st54{fill:none;stroke:#0AAFF1;stroke-miterlimit:10;}
	.st55{fill:#FFFFFF;stroke:#0AAFF1;stroke-miterlimit:10;}
	.st56{fill:none;stroke:#FFFFFF;stroke-width:2;stroke-miterlimit:10;}
	.st57{fill:#0AAFF1;stroke:#0AAFF1;stroke-width:3;stroke-miterlimit:10;}
	.st58{fill:none;stroke:#0AAFF1;stroke-width:4;stroke-miterlimit:10;}
	.st59{fill:none;stroke:#0AAFF1;stroke-width:2.25;stroke-miterlimit:10;}
	.st60{fill:#1FB900;}
	.st61{fill:none;stroke:#0AAFF1;stroke-width:13;stroke-linecap:round;stroke-linejoin:round;stroke-miterlimit:10;}
	.st62{fill:none;stroke:#FFFFFF;stroke-width:1.5;stroke-linecap:round;stroke-linejoin:round;stroke-miterlimit:10;}
	.st63{fill:#F7FAF9;}
	.st64{fill:none;stroke:#FFFFFF;stroke-width:0.5;stroke-miterlimit:10;}
	.st65{fill:#FFFFFF;stroke:#0AAFF1;stroke-width:3;stroke-miterlimit:10;}
	.st66{fill:#606060;stroke:#0AAFF1;stroke-width:15;stroke-miterlimit:10;}
	.st67{fill:none;stroke:#FFFFFF;stroke-width:1.5;stroke-miterlimit:10;}
	.st68{fill:none;stroke:#0AAFF1;stroke-width:8;stroke-miterlimit:10;}
	.st69{fill:#FFFFFF;stroke:#0AAFF1;stroke-width:0.75;stroke-linecap:round;stroke-linejoin:round;stroke-miterlimit:10;}
	.st70{fill:none;stroke:#0AAFF1;stroke-width:10;stroke-linecap:round;stroke-linejoin:round;stroke-miterlimit:10;}
	.st71{fill:none;stroke:#E70027;stroke-width:10;stroke-linecap:round;stroke-linejoin:round;stroke-miterlimit:10;}
	.st72{opacity:0.5;fill:none;stroke:#E70027;stroke-width:10;stroke-miterlimit:10;}
	.st73{opacity:0.5;fill:#E70027;}
	.st74{fill:none;stroke:#FFFFFC;stroke-width:10;stroke-linecap:round;stroke-linejoin:round;stroke-miterlimit:10;}
	.st75{fill:none;stroke:#606060;stroke-width:15;stroke-linecap:round;stroke-linejoin:round;stroke-miterlimit:10;}
	.st76{fill:#606060;stroke:#FFFFFF;stroke-width:7;stroke-miterlimit:10;}
	.st77{fill:#0AAFF1;stroke:#0AAFF1;stroke-miterlimit:10;}
	.st78{fill:none;stroke:#606060;stroke-width:10;stroke-linecap:round;stroke-linejoin:round;stroke-miterlimit:10;}
	.st79{fill:none;stroke:#FFFFFF;stroke-width:7;stroke-miterlimit:10;stroke-dasharray:5.8286,5.8286;}
	.st80{fill:none;stroke:#000000;stroke-width:19;stroke-miterlimit:10;}
	.st81{fill:#0AAFF1;stroke:#FFFFFF;stroke-width:2;stroke-miterlimit:10;}
	.st82{fill:#45B8FF;}
	.st83{opacity:0.5;fill:none;stroke:#45B8FF;stroke-width:1.75;stroke-miterlimit:10;}
	.st84{fill:none;stroke:#000000;stroke-width:1.75;stroke-miterlimit:10;}
	.st85{fill:none;stroke:#000000;stroke-width:1.5;stroke-miterlimit:10;}
	.st86{fill:none;stroke:#0AAFF1;stroke-width:1.75;stroke-miterlimit:10;}
	.st87{fill:none;stroke:#0AAFF1;stroke-width:1.75;stroke-linecap:round;stroke-linejoin:round;stroke-miterlimit:10;}
	.st88{fill:#FFFFFC;stroke:#FFFFFC;stroke-width:3;stroke-miterlimit:10;}
	.st89{fill:none;stroke:#000000;stroke-width:2;stroke-miterlimit:10;}
	.st90{fill:none;stroke:#FFFFFF;stroke-width:2;stroke-linecap:round;stroke-linejoin:round;stroke-miterlimit:10;}
	.st91{fill:#00A3C8;stroke:#606060;stroke-width:5;stroke-miterlimit:10;}
	.st92{fill:#0084F6;}
	.st93{fill:#CDCDC9;}
	.st94{fill-rule:evenodd;clip-rule:evenodd;fill:#FFFFFF;}
	.st95{fill:none;stroke:#0AAFF1;stroke-width:5;stroke-miterlimit:10;}
	.st96{fill:none;stroke:#0AAFF1;stroke-width:5;stroke-linecap:round;stroke-linejoin:round;stroke-miterlimit:10;}
	.st97{fill:#FFFFFF;stroke:#0AAFF1;stroke-width:5;stroke-linecap:round;stroke-linejoin:round;stroke-miterlimit:10;}
	.st98{fill:none;stroke:#0AAFF1;stroke-width:3;stroke-miterlimit:10;}
	.st99{fill:#0AAFF1;stroke:#0AAFF1;stroke-width:6;stroke-linecap:round;stroke-linejoin:round;stroke-miterlimit:10;}
	.st100{fill:#00D06F;}
	.st101{fill:#0AAFF1;stroke:#0AAFF1;stroke-width:6;stroke-miterlimit:10;}
	.st102{fill:none;stroke:#0AAFF1;stroke-width:2.5;stroke-linecap:round;stroke-linejoin:round;stroke-miterlimit:10;}
	.st103{fill:#FFFF00;stroke:#000000;stroke-width:3;stroke-miterlimit:10;}
	.st104{fill:#53FC00;}
	.st105{fill:#80A51B;}
	.st106{fill:none;stroke:#80A51B;stroke-width:0.999;}
	.st107{fill:none;stroke:#000000;stroke-width:0.75;stroke-miterlimit:10;}
	.st108{opacity:0.4;}
	.st109{fill:#0078D4;}
	.st110{fill:#45D7FA;}
	.st111{fill:#189AE1;}
	.st112{fill:none;stroke:#606060;stroke-width:13;stroke-linecap:round;stroke-linejoin:round;stroke-miterlimit:10;}
	.st113{fill:none;stroke:#FFFFFF;stroke-width:7;stroke-linecap:round;stroke-linejoin:round;stroke-miterlimit:10;}
	.st114{fill:#FFFFFF;stroke:#FFFFFF;stroke-miterlimit:10;}
	.st115{fill:#DADADA;}
	.st116{fill:none;stroke:#20FF77;stroke-miterlimit:10;}
</style>
<g>
	<path class="st2" d="M11.7,27.21c-2.11-2.33-3.1-5.34-2.78-8.49c0.51-5.17,4.64-9.29,9.8-9.8c0.37-0.04,0.75-0.06,1.12-0.06
		c0.27,0,7.7,0.03,7.71,0.03V6.31c0-0.55-0.33-1.03-0.82-1.26c0,0-0.01,0-0.01-0.01c-1.12-0.52-2.29-0.93-3.57-1.08
		c-0.02,0-0.04-0.02-0.04-0.04l-0.52-2.92C22.54,0.41,22.08,0,21.45,0c-0.03,0-0.06,0-0.08,0h-3.04c-0.02,0-0.05,0-0.08,0
		c-0.64,0-1.09,0.41-1.12,1.01l-0.51,2.85l0,0c-2.07,0.42-4.01,1.22-5.78,2.4L8.45,4.6C8.2,4.37,7.93,4.32,7.75,4.32
		C7.3,4.32,7,4.62,6.89,4.74L4.74,6.89C4.62,6.99,4.34,7.28,4.32,7.7C4.3,7.97,4.4,8.23,4.6,8.45l1.66,2.38
		c-1.18,1.76-1.98,3.71-2.4,5.78l-2.85,0.51c-0.29,0.02-0.55,0.14-0.73,0.34C0,17.77-0.01,18.17,0,18.32v3.04
		c-0.01,0.16,0,0.55,0.27,0.87c0.18,0.2,0.44,0.32,0.73,0.34l2.85,0.51c0,0,0,0,0,0c0.41,2.08,1.22,4.02,2.39,5.79L4.6,31.24
		c-0.19,0.22-0.29,0.48-0.28,0.75c0.02,0.42,0.3,0.7,0.42,0.81l2.15,2.15C7,35.07,7.3,35.37,7.75,35.37c0.18,0,0.44-0.05,0.7-0.28
		l2.36-1.67c1.76,1.18,3.72,1.99,5.79,2.41l0.51,2.85c0.03,0.6,0.48,1.01,1.12,1.01c0.03,0,0.06,0,0.08,0h3.04c0.02,0,0.05,0,0.08,0
		c0.64,0,1.09-0.41,1.12-1.01l0.51-2.85c1.26-0.25,2.48-0.65,3.63-1.19c0,0,0.01,0,0.01,0c0.5-0.23,0.83-0.71,0.83-1.26v-2.6
		c0,0-7.35,0.05-7.67,0.05C16.76,30.82,13.78,29.51,11.7,27.21z"/>
	<path class="st2" d="M35.72,27.24c-0.51,0-0.98,0.14-1.39,0.37l-2.17-2.27c-0.14-0.15-0.34-0.23-0.54-0.23h-7.45
		c-0.41,0-0.75,0.34-0.75,0.75s0.34,0.75,0.75,0.75h7.13l1.94,2.04c-0.27,0.44-0.44,0.96-0.44,1.52c0,1.61,1.31,2.92,2.92,2.92
		c1.61,0,2.92-1.31,2.92-2.92S37.33,27.24,35.72,27.24z M35.72,31.57c-0.78,0-1.42-0.64-1.42-1.42c0-0.78,0.64-1.42,1.42-1.42
		c0.78,0,1.42,0.64,1.42,1.42C37.14,30.94,36.5,31.57,35.72,31.57z"/>
	<path class="st2" d="M40.09,18.98c-1.35,0-2.47,0.92-2.81,2.17H24.16c-0.41,0-0.75,0.34-0.75,0.75s0.34,0.75,0.75,0.75h13.12
		c0.33,1.24,1.46,2.17,2.81,2.17c1.61,0,2.92-1.31,2.92-2.92C43.01,20.29,41.7,18.98,40.09,18.98z M40.09,23.32
		c-0.78,0-1.42-0.64-1.42-1.42c0-0.78,0.64-1.42,1.42-1.42c0.78,0,1.42,0.64,1.42,1.42C41.51,22.68,40.87,23.32,40.09,23.32z"/>
	<path class="st2" d="M47.08,11.28c-1.35,0-2.48,0.92-2.81,2.17h-4.18c-0.19,0-0.37,0.07-0.51,0.2l-3.78,3.44H24.16
		c-0.41,0-0.75,0.34-0.75,0.75c0,0.41,0.34,0.75,0.75,0.75H36.1c0.19,0,0.37-0.07,0.51-0.2l3.78-3.44h3.89
		c0.33,1.24,1.46,2.17,2.81,2.17c1.61,0,2.92-1.31,2.92-2.92C50,12.59,48.69,11.28,47.08,11.28z M47.08,15.62
		c-0.78,0-1.42-0.64-1.42-1.42c0-0.78,0.64-1.42,1.42-1.42c0.78,0,1.42,0.64,1.42,1.42C48.5,14.98,47.86,15.62,47.08,15.62z"/>
	<path class="st2" d="M24.16,13.15c-0.41,0-0.75,0.34-0.75,0.75c0,0.41,0.34,0.75,0.75,0.75h7.45c0.21,0,0.4-0.08,0.55-0.23
		l2.55-2.69c0.41,0.23,0.88,0.37,1.38,0.37c1.61,0,2.92-1.31,2.92-2.92c0-1.61-1.31-2.92-2.92-2.92s-2.92,1.31-2.92,2.92
		c0,0.56,0.17,1.08,0.44,1.52l-2.33,2.45H24.16z M36.1,7.76c0.78,0,1.42,0.64,1.42,1.42c0,0.78-0.64,1.42-1.42,1.42
		c-0.78,0-1.42-0.64-1.42-1.42C34.68,8.39,35.32,7.76,36.1,7.76z"/>
</g>
</svg>
