<?xml version="1.0" encoding="utf-8"?>
<!-- Generator: Adobe Illustrator 26.2.1, SVG Export Plug-In . SVG Version: 6.00 Build 0)  -->
<svg version="1.1" id="Capa_1" xmlns="http://www.w3.org/2000/svg" xmlns:xlink="http://www.w3.org/1999/xlink" x="0px" y="0px"
	 viewBox="0 0 50 49.99" style="enable-background:new 0 0 50 49.99;" xml:space="preserve">
<style type="text/css">
	.st0{fill:#0AAFF1;}
	.st1{fill:none;stroke:#0AAFF1;stroke-width:15;stroke-miterlimit:10;}
	.st2{fill:#FFFFFF;}
	.st3{fill:#FFFFFF;stroke:#E0E5EE;stroke-miterlimit:10;}
	.st4{fill:#606060;}
	.st5{fill:none;stroke:#0084F6;stroke-width:11;stroke-miterlimit:10;}
	.st6{fill:#00B346;}
	.st7{fill:#00A3C8;}
	.st8{fill:none;stroke:#00A3C8;stroke-miterlimit:10;}
	.st9{fill:none;stroke:#FFFFFF;stroke-width:4;stroke-miterlimit:10;}
	.st10{fill:#606060;stroke:#606060;stroke-width:5;stroke-miterlimit:10;}
	.st11{fill:none;stroke:#FFFFFF;stroke-width:10;stroke-miterlimit:10;}
	.st12{fill:#606060;stroke:#FFFFFF;stroke-width:10;stroke-miterlimit:10;}
	.st13{fill:#E70027;}
	.st14{fill:#FFFFFC;}
	.st15{fill:#FFFFFF;stroke:#606060;stroke-width:10;stroke-miterlimit:10;}
	.st16{fill:none;stroke:#000000;stroke-width:10;stroke-miterlimit:10;}
	.st17{fill:#F2F5FA;}
	.st18{fill:#FF8A5C;}
	.st19{fill:#F8F8F8;stroke:#E0E5EE;stroke-miterlimit:10;}
	.st20{fill:none;stroke:#C6C6C6;stroke-miterlimit:10;}
	.st21{fill:#FF5470;}
	.st22{fill:none;stroke:#FFFFFF;stroke-width:7;stroke-miterlimit:10;}
	.st23{fill:#FF7523;}
	.st24{fill:none;stroke:#FFFFFF;stroke-miterlimit:10;}
	.st25{fill:none;stroke:#0AAFF1;stroke-linecap:round;stroke-linejoin:round;stroke-miterlimit:10;}
	.st26{fill:#0AAFF1;stroke:#FFFFFF;stroke-linecap:round;stroke-linejoin:round;stroke-miterlimit:10;}
	.st27{opacity:0.25;fill:#1E93D1;}
	.st28{fill:#1E93D1;}
	.st29{fill:#1C5392;}
	.st30{fill:none;stroke:#FFFFFF;stroke-linecap:round;stroke-linejoin:round;stroke-miterlimit:10;}
	.st31{fill:none;stroke:#0AAFF1;stroke-width:2;stroke-linecap:round;stroke-linejoin:round;stroke-miterlimit:10;}
	.st32{fill:none;stroke:#0AAFF1;stroke-width:4;stroke-linecap:round;stroke-linejoin:round;stroke-miterlimit:10;}
	.st33{fill:none;stroke:#FFFFFF;stroke-width:5;stroke-miterlimit:10;}
	.st34{fill:none;stroke:#FFFFFF;stroke-width:5;stroke-linecap:round;stroke-linejoin:round;stroke-miterlimit:10;}
	.st35{fill:none;stroke:#0AAFF1;stroke-width:24;stroke-miterlimit:10;}
	.st36{fill:none;stroke:#F2F5FA;stroke-width:10;stroke-miterlimit:10;}
	.st37{fill:#B8D637;}
	.st38{fill:#1D1D1B;}
	.st39{fill:#88898B;}
	.st40{fill:#9F9FA1;}
	.st41{fill:#D2D2D3;}
	.st42{fill:#F7F7F7;}
	.st43{fill:none;stroke:#FFFFFF;stroke-width:4;stroke-linecap:round;stroke-linejoin:round;stroke-miterlimit:10;}
	.st44{fill:#0AAFF1;stroke:#FFFFFF;stroke-width:1.5;stroke-linecap:round;stroke-linejoin:round;stroke-miterlimit:10;}
	.st45{fill:#FFFFFF;stroke:#0AAFF1;stroke-width:1.5;stroke-linecap:round;stroke-linejoin:round;stroke-miterlimit:10;}
	.st46{fill:#FFFFFF;stroke:#0AAFF1;stroke-width:3;stroke-linecap:round;stroke-linejoin:round;stroke-miterlimit:10;}
	.st47{fill:none;stroke:#0AAFF1;stroke-width:3;stroke-linecap:round;stroke-linejoin:round;stroke-miterlimit:10;}
	.st48{fill:none;}
	.st49{fill:#FFFFFF;stroke:#0AAFF1;stroke-width:1.5;stroke-miterlimit:10;}
	.st50{fill:#0AAFF1;stroke:#FFFFFF;stroke-width:1.5;stroke-miterlimit:10;}
	.st51{fill:none;stroke:#0AAFF1;stroke-width:2;stroke-miterlimit:10;}
	.st52{fill:#FFFFFF;stroke:#0AAFF1;stroke-width:2;stroke-miterlimit:10;}
	.st53{fill:#0AAFF1;stroke:#FFFFFF;stroke-miterlimit:10;}
	.st54{fill:none;stroke:#0AAFF1;stroke-miterlimit:10;}
	.st55{fill:#FFFFFF;stroke:#0AAFF1;stroke-miterlimit:10;}
	.st56{fill:none;stroke:#FFFFFF;stroke-width:2;stroke-miterlimit:10;}
	.st57{fill:#0AAFF1;stroke:#0AAFF1;stroke-width:3;stroke-miterlimit:10;}
	.st58{fill:none;stroke:#0AAFF1;stroke-width:4;stroke-miterlimit:10;}
	.st59{fill:none;stroke:#0AAFF1;stroke-width:2.25;stroke-miterlimit:10;}
	.st60{fill:#008AF2;}
	.st61{fill:#1FB900;}
	.st62{fill:none;stroke:#0AAFF1;stroke-width:13;stroke-linecap:round;stroke-linejoin:round;stroke-miterlimit:10;}
	.st63{fill:none;stroke:#FFFFFF;stroke-width:1.5;stroke-linecap:round;stroke-linejoin:round;stroke-miterlimit:10;}
	.st64{fill:#F7FAF9;}
	.st65{fill:none;stroke:#FFFFFF;stroke-width:0.5;stroke-miterlimit:10;}
	.st66{fill:#FFFFFF;stroke:#0AAFF1;stroke-width:3;stroke-miterlimit:10;}
	.st67{fill:#606060;stroke:#0AAFF1;stroke-width:15;stroke-miterlimit:10;}
	.st68{fill:none;stroke:#FFFFFF;stroke-width:1.5;stroke-miterlimit:10;}
	.st69{fill:none;stroke:#0AAFF1;stroke-width:8;stroke-miterlimit:10;}
	.st70{fill:#FFFFFF;stroke:#0AAFF1;stroke-width:0.75;stroke-linecap:round;stroke-linejoin:round;stroke-miterlimit:10;}
	.st71{fill:none;stroke:#0AAFF1;stroke-width:10;stroke-linecap:round;stroke-linejoin:round;stroke-miterlimit:10;}
	.st72{fill:none;stroke:#E70027;stroke-width:10;stroke-linecap:round;stroke-linejoin:round;stroke-miterlimit:10;}
	.st73{opacity:0.5;fill:none;stroke:#E70027;stroke-width:10;stroke-miterlimit:10;}
	.st74{opacity:0.5;fill:#E70027;}
	.st75{fill:none;stroke:#FFFFFC;stroke-width:10;stroke-linecap:round;stroke-linejoin:round;stroke-miterlimit:10;}
	.st76{fill:none;stroke:#606060;stroke-width:15;stroke-linecap:round;stroke-linejoin:round;stroke-miterlimit:10;}
	.st77{fill:#606060;stroke:#FFFFFF;stroke-width:7;stroke-miterlimit:10;}
	.st78{fill:#0AAFF1;stroke:#0AAFF1;stroke-miterlimit:10;}
	.st79{fill:none;stroke:#606060;stroke-width:10;stroke-linecap:round;stroke-linejoin:round;stroke-miterlimit:10;}
	.st80{fill:none;stroke:#FFFFFF;stroke-width:7;stroke-miterlimit:10;stroke-dasharray:5.8286,5.8286;}
	.st81{fill:none;stroke:#000000;stroke-width:19;stroke-miterlimit:10;}
	.st82{fill:#0AAFF1;stroke:#FFFFFF;stroke-width:2;stroke-miterlimit:10;}
	.st83{fill:#45B8FF;}
	.st84{opacity:0.5;fill:none;stroke:#45B8FF;stroke-width:1.75;stroke-miterlimit:10;}
	.st85{fill:none;stroke:#000000;stroke-width:1.75;stroke-miterlimit:10;}
	.st86{fill:none;stroke:#000000;stroke-width:1.5;stroke-miterlimit:10;}
	.st87{fill:none;stroke:#0AAFF1;stroke-width:1.75;stroke-miterlimit:10;}
	.st88{fill:none;stroke:#0AAFF1;stroke-width:1.75;stroke-linecap:round;stroke-linejoin:round;stroke-miterlimit:10;}
	.st89{fill:#FFFFFC;stroke:#FFFFFC;stroke-width:3;stroke-miterlimit:10;}
	.st90{fill:none;stroke:#000000;stroke-width:2;stroke-miterlimit:10;}
	.st91{fill:none;stroke:#FFFFFF;stroke-width:2;stroke-linecap:round;stroke-linejoin:round;stroke-miterlimit:10;}
	.st92{fill:#00A3C8;stroke:#606060;stroke-width:5;stroke-miterlimit:10;}
	.st93{fill:#0084F6;}
	.st94{fill:#CDCDC9;}
	.st95{fill-rule:evenodd;clip-rule:evenodd;fill:#FFFFFF;}
	.st96{fill:none;stroke:#0AAFF1;stroke-width:5;stroke-miterlimit:10;}
	.st97{fill:none;stroke:#0AAFF1;stroke-width:5;stroke-linecap:round;stroke-linejoin:round;stroke-miterlimit:10;}
	.st98{fill:#FFFFFF;stroke:#0AAFF1;stroke-width:5;stroke-linecap:round;stroke-linejoin:round;stroke-miterlimit:10;}
	.st99{fill:none;stroke:#0AAFF1;stroke-width:3;stroke-miterlimit:10;}
	.st100{fill:#0AAFF1;stroke:#0AAFF1;stroke-width:6;stroke-linecap:round;stroke-linejoin:round;stroke-miterlimit:10;}
	.st101{fill:#00D06F;}
	.st102{fill:none;stroke:#0AAFF1;stroke-width:2.5;stroke-linecap:round;stroke-linejoin:round;stroke-miterlimit:10;}
	.st103{fill:#FFFF00;stroke:#000000;stroke-width:3;stroke-miterlimit:10;}
	.st104{fill:#53FC00;}
	.st105{fill:#80A51B;}
	.st106{fill:none;stroke:#80A51B;stroke-width:0.999;}
	.st107{fill:none;stroke:#000000;stroke-width:0.75;stroke-miterlimit:10;}
	.st108{opacity:0.4;}
	.st109{fill:#0078D4;}
	.st110{fill:#45D7FA;}
	.st111{fill:#189AE1;}
	.st112{fill:none;stroke:#606060;stroke-width:13;stroke-linecap:round;stroke-linejoin:round;stroke-miterlimit:10;}
	.st113{fill:none;stroke:#FFFFFF;stroke-width:7;stroke-linecap:round;stroke-linejoin:round;stroke-miterlimit:10;}
	.st114{fill:#FFFFFF;stroke:#FFFFFF;stroke-miterlimit:10;}
	.st115{fill:#DADADA;}
	.st116{fill:none;stroke:#20FF77;stroke-miterlimit:10;}
	.st117{fill:#0AAFF1;stroke:#0AAFF1;stroke-width:6;stroke-miterlimit:10;}
	.st118{fill:none;stroke:#FFFFFF;stroke-width:3;stroke-miterlimit:10;}
	.st119{fill:#FFFFFF;stroke:#FFFFFF;stroke-width:2;stroke-miterlimit:10;}
	.st120{fill:none;stroke:#FFFFFF;stroke-width:2.5;stroke-miterlimit:10;}
	.st121{fill:none;stroke:#0AAFF1;stroke-width:2.25;stroke-linecap:round;stroke-linejoin:round;stroke-miterlimit:10;}
	.st122{fill:#121212;}
	.st123{fill:#006F95;}
	.st124{clip-path:url(#SVGID_00000010288474357246142010000006231600649056406164_);}
	.st125{fill:#51A2FF;}
	.st126{opacity:0.55;}
	.st127{fill:#00484B;}
	.st128{fill:#1D1D1D;}
	.st129{fill:#F8CEB0;}
	.st130{fill:#CB6858;}
	.st131{opacity:0.35;fill:#FFFFFF;}
	.st132{opacity:0.5;fill:#FFFFFF;}
	.st133{fill:#EC0016;}
	.st134{fill:#009D41;}
	.st135{fill:#C0C0C0;}
	.st136{opacity:0.2;}
	.st137{fill:#3C3C3B;}
	.st138{fill:#B2B2B2;}
	.st139{fill:#878787;}
	.st140{fill:#FF3800;}
</style>
<g>
	<path class="st2" d="M40.34,45.19c-1.93-0.69-3.68-1.31-5.43-1.93c-1.26-0.44-3.45,0.49-4.04,1.71c-0.65,1.34-1.31,2.67-1.9,4.03
		c-0.3,0.69-0.68,1.01-1.48,0.98c-1.65-0.06-3.31-0.06-4.96,0c-0.8,0.03-1.19-0.28-1.49-0.98c-0.45-1.06-1.02-2.08-1.47-3.14
		c-0.46-1.1-1.01-1.95-2.27-2.38c-0.99-0.34-1.82-0.46-2.8-0.04c-1.25,0.54-2.56,0.91-3.83,1.41c-0.62,0.24-1.03,0.19-1.51-0.32
		c-1.18-1.27-2.48-2.44-3.64-3.72c-0.28-0.31-0.42-0.96-0.31-1.36c0.32-1.19,0.71-2.38,1.24-3.49c0.59-1.26,0.68-2.45-0.12-3.59
		c-0.4-0.57-0.86-1.18-1.44-1.51c-1.29-0.74-2.66-1.32-4.01-1.93C0.3,28.65-0.02,28.35,0,27.63c0.06-1.74-0.03-3.48,0.06-5.21
		c0.02-0.42,0.4-0.98,0.77-1.18c1.45-0.78,2.97-1.44,4.45-2.16c0.95-0.46,1.92-2.83,1.57-3.82c-0.52-1.48-1.03-2.96-1.61-4.42
		c-0.28-0.7-0.23-1.19,0.36-1.73c1.24-1.15,2.38-2.42,3.64-3.56c0.31-0.28,0.96-0.42,1.36-0.31c1.46,0.42,2.89,0.99,4.32,1.5
		c1.51,0.53,3.62-0.35,4.32-1.81c0.66-1.38,1.27-2.78,2.01-4.12c0.2-0.36,0.76-0.73,1.17-0.74c1.73-0.08,3.48-0.08,5.21,0
		c0.41,0.02,0.97,0.39,1.17,0.76c0.77,1.41,1.41,2.89,2.11,4.35c0.55,1.14,2.79,2.08,3.98,1.66c1.48-0.52,2.96-1.04,4.42-1.59
		c0.59-0.22,1.03-0.25,1.52,0.29c1.18,1.28,2.41,2.5,3.69,3.68c0.52,0.48,0.54,0.9,0.3,1.51c-0.43,1.07-0.71,2.21-1.2,3.25
		c-0.61,1.32-0.77,2.59,0.09,3.83c0.35,0.51,0.76,1.06,1.28,1.35c1.37,0.76,2.84,1.34,4.21,2.1c0.37,0.2,0.73,0.77,0.75,1.18
		c0.08,1.73,0.08,3.48,0,5.21c-0.02,0.41-0.37,0.98-0.73,1.18c-1.41,0.77-2.89,1.41-4.34,2.12c-1.14,0.55-2.07,2.79-1.66,3.98
		c0.54,1.56,1.11,3.11,1.61,4.68c0.1,0.32,0.06,0.84-0.15,1.07C43.25,42.21,41.77,43.71,40.34,45.19z M25.01,33.83
		c4.86-0.01,8.8-3.88,8.84-8.67c0.04-4.91-3.99-9-8.84-8.99c-4.84,0.01-8.82,4.02-8.82,8.88C16.18,29.93,20.1,33.84,25.01,33.83z"/>
</g>
</svg>
