<?xml version="1.0" encoding="utf-8"?>
<!-- Generator: Adobe Illustrator 26.2.1, SVG Export Plug-In . SVG Version: 6.00 Build 0)  -->
<svg version="1.1" id="Capa_1" xmlns="http://www.w3.org/2000/svg" xmlns:xlink="http://www.w3.org/1999/xlink" x="0px" y="0px"
	 viewBox="0 0 50 49.85" style="enable-background:new 0 0 50 49.85;" xml:space="preserve">
<style type="text/css">
	.st0{fill:#0AAFF1;}
	.st1{fill:none;stroke:#0AAFF1;stroke-width:15;stroke-miterlimit:10;}
	.st2{fill:#FFFFFF;}
	.st3{fill:#FFFFFF;stroke:#E0E5EE;stroke-miterlimit:10;}
	.st4{fill:#606060;}
	.st5{fill:none;stroke:#0084F6;stroke-width:11;stroke-miterlimit:10;}
	.st6{fill:#00B346;}
	.st7{fill:#00A3C8;}
	.st8{fill:none;stroke:#00A3C8;stroke-miterlimit:10;}
	.st9{fill:none;stroke:#FFFFFF;stroke-width:4;stroke-miterlimit:10;}
	.st10{fill:#606060;stroke:#606060;stroke-width:5;stroke-miterlimit:10;}
	.st11{fill:none;stroke:#FFFFFF;stroke-width:10;stroke-miterlimit:10;}
	.st12{fill:#606060;stroke:#FFFFFF;stroke-width:10;stroke-miterlimit:10;}
	.st13{fill:#E70027;}
	.st14{fill:#FFFFFC;}
	.st15{fill:#FFFFFF;stroke:#606060;stroke-width:10;stroke-miterlimit:10;}
	.st16{fill:none;stroke:#000000;stroke-width:10;stroke-miterlimit:10;}
	.st17{fill:#F2F5FA;}
	.st18{fill:#FF8A5C;}
	.st19{fill:#F8F8F8;stroke:#E0E5EE;stroke-miterlimit:10;}
	.st20{fill:none;stroke:#C6C6C6;stroke-miterlimit:10;}
	.st21{fill:#FF5470;}
	.st22{fill:none;stroke:#FFFFFF;stroke-width:7;stroke-miterlimit:10;}
	.st23{fill:#FF7523;}
	.st24{fill:none;stroke:#FFFFFF;stroke-miterlimit:10;}
	.st25{fill:none;stroke:#0AAFF1;stroke-linecap:round;stroke-linejoin:round;stroke-miterlimit:10;}
	.st26{fill:#0AAFF1;stroke:#FFFFFF;stroke-linecap:round;stroke-linejoin:round;stroke-miterlimit:10;}
	.st27{opacity:0.25;fill:#1E93D1;}
	.st28{fill:#1E93D1;}
	.st29{fill:#1C5392;}
	.st30{fill:none;stroke:#FFFFFF;stroke-linecap:round;stroke-linejoin:round;stroke-miterlimit:10;}
	.st31{fill:none;stroke:#0AAFF1;stroke-width:2;stroke-linecap:round;stroke-linejoin:round;stroke-miterlimit:10;}
	.st32{fill:none;stroke:#0AAFF1;stroke-width:4;stroke-linecap:round;stroke-linejoin:round;stroke-miterlimit:10;}
	.st33{fill:none;stroke:#FFFFFF;stroke-width:5;stroke-miterlimit:10;}
	.st34{fill:none;stroke:#FFFFFF;stroke-width:5;stroke-linecap:round;stroke-linejoin:round;stroke-miterlimit:10;}
	.st35{fill:none;stroke:#0AAFF1;stroke-width:24;stroke-miterlimit:10;}
	.st36{fill:none;stroke:#F2F5FA;stroke-width:10;stroke-miterlimit:10;}
	.st37{fill:#B8D637;}
	.st38{fill:#1D1D1B;}
	.st39{fill:#88898B;}
	.st40{fill:#9F9FA1;}
	.st41{fill:#D2D2D3;}
	.st42{fill:#F7F7F7;}
	.st43{fill:none;stroke:#FFFFFF;stroke-width:4;stroke-linecap:round;stroke-linejoin:round;stroke-miterlimit:10;}
	.st44{fill:#0AAFF1;stroke:#FFFFFF;stroke-width:1.5;stroke-linecap:round;stroke-linejoin:round;stroke-miterlimit:10;}
	.st45{fill:#FFFFFF;stroke:#0AAFF1;stroke-width:1.5;stroke-linecap:round;stroke-linejoin:round;stroke-miterlimit:10;}
	.st46{fill:#FFFFFF;stroke:#0AAFF1;stroke-width:3;stroke-linecap:round;stroke-linejoin:round;stroke-miterlimit:10;}
	.st47{fill:none;stroke:#0AAFF1;stroke-width:3;stroke-linecap:round;stroke-linejoin:round;stroke-miterlimit:10;}
	.st48{fill:none;}
	.st49{fill:#FFFFFF;stroke:#0AAFF1;stroke-width:1.5;stroke-miterlimit:10;}
	.st50{fill:#0AAFF1;stroke:#FFFFFF;stroke-width:1.5;stroke-miterlimit:10;}
	.st51{fill:none;stroke:#0AAFF1;stroke-width:2;stroke-miterlimit:10;}
	.st52{fill:#FFFFFF;stroke:#0AAFF1;stroke-width:2;stroke-miterlimit:10;}
	.st53{fill:#0AAFF1;stroke:#FFFFFF;stroke-miterlimit:10;}
	.st54{fill:none;stroke:#0AAFF1;stroke-miterlimit:10;}
	.st55{fill:#FFFFFF;stroke:#0AAFF1;stroke-miterlimit:10;}
	.st56{fill:none;stroke:#FFFFFF;stroke-width:2;stroke-miterlimit:10;}
	.st57{fill:#0AAFF1;stroke:#0AAFF1;stroke-width:3;stroke-miterlimit:10;}
	.st58{fill:none;stroke:#0AAFF1;stroke-width:4;stroke-miterlimit:10;}
	.st59{fill:none;stroke:#0AAFF1;stroke-width:2.25;stroke-miterlimit:10;}
	.st60{fill:#008AF2;}
	.st61{fill:#1FB900;}
	.st62{fill:none;stroke:#0AAFF1;stroke-width:13;stroke-linecap:round;stroke-linejoin:round;stroke-miterlimit:10;}
	.st63{fill:none;stroke:#FFFFFF;stroke-width:1.5;stroke-linecap:round;stroke-linejoin:round;stroke-miterlimit:10;}
	.st64{fill:#F7FAF9;}
	.st65{fill:none;stroke:#FFFFFF;stroke-width:0.5;stroke-miterlimit:10;}
	.st66{fill:#FFFFFF;stroke:#0AAFF1;stroke-width:3;stroke-miterlimit:10;}
	.st67{fill:#606060;stroke:#0AAFF1;stroke-width:15;stroke-miterlimit:10;}
	.st68{fill:none;stroke:#FFFFFF;stroke-width:1.5;stroke-miterlimit:10;}
	.st69{fill:none;stroke:#0AAFF1;stroke-width:8;stroke-miterlimit:10;}
	.st70{fill:#FFFFFF;stroke:#0AAFF1;stroke-width:0.75;stroke-linecap:round;stroke-linejoin:round;stroke-miterlimit:10;}
	.st71{fill:none;stroke:#0AAFF1;stroke-width:10;stroke-linecap:round;stroke-linejoin:round;stroke-miterlimit:10;}
	.st72{fill:none;stroke:#E70027;stroke-width:10;stroke-linecap:round;stroke-linejoin:round;stroke-miterlimit:10;}
	.st73{opacity:0.5;fill:none;stroke:#E70027;stroke-width:10;stroke-miterlimit:10;}
	.st74{opacity:0.5;fill:#E70027;}
	.st75{fill:none;stroke:#FFFFFC;stroke-width:10;stroke-linecap:round;stroke-linejoin:round;stroke-miterlimit:10;}
	.st76{fill:none;stroke:#606060;stroke-width:15;stroke-linecap:round;stroke-linejoin:round;stroke-miterlimit:10;}
	.st77{fill:#606060;stroke:#FFFFFF;stroke-width:7;stroke-miterlimit:10;}
	.st78{fill:#0AAFF1;stroke:#0AAFF1;stroke-miterlimit:10;}
	.st79{fill:none;stroke:#606060;stroke-width:10;stroke-linecap:round;stroke-linejoin:round;stroke-miterlimit:10;}
	.st80{fill:none;stroke:#FFFFFF;stroke-width:7;stroke-miterlimit:10;stroke-dasharray:5.8286,5.8286;}
	.st81{fill:none;stroke:#000000;stroke-width:19;stroke-miterlimit:10;}
	.st82{fill:#0AAFF1;stroke:#FFFFFF;stroke-width:2;stroke-miterlimit:10;}
	.st83{fill:#45B8FF;}
	.st84{opacity:0.5;fill:none;stroke:#45B8FF;stroke-width:1.75;stroke-miterlimit:10;}
	.st85{fill:none;stroke:#000000;stroke-width:1.75;stroke-miterlimit:10;}
	.st86{fill:none;stroke:#000000;stroke-width:1.5;stroke-miterlimit:10;}
	.st87{fill:none;stroke:#0AAFF1;stroke-width:1.75;stroke-miterlimit:10;}
	.st88{fill:none;stroke:#0AAFF1;stroke-width:1.75;stroke-linecap:round;stroke-linejoin:round;stroke-miterlimit:10;}
	.st89{fill:#FFFFFC;stroke:#FFFFFC;stroke-width:3;stroke-miterlimit:10;}
	.st90{fill:none;stroke:#000000;stroke-width:2;stroke-miterlimit:10;}
	.st91{fill:none;stroke:#FFFFFF;stroke-width:2;stroke-linecap:round;stroke-linejoin:round;stroke-miterlimit:10;}
	.st92{fill:#00A3C8;stroke:#606060;stroke-width:5;stroke-miterlimit:10;}
	.st93{fill:#0084F6;}
	.st94{fill:#CDCDC9;}
	.st95{fill-rule:evenodd;clip-rule:evenodd;fill:#FFFFFF;}
	.st96{fill:none;stroke:#0AAFF1;stroke-width:5;stroke-miterlimit:10;}
	.st97{fill:none;stroke:#0AAFF1;stroke-width:5;stroke-linecap:round;stroke-linejoin:round;stroke-miterlimit:10;}
	.st98{fill:#FFFFFF;stroke:#0AAFF1;stroke-width:5;stroke-linecap:round;stroke-linejoin:round;stroke-miterlimit:10;}
	.st99{fill:none;stroke:#0AAFF1;stroke-width:3;stroke-miterlimit:10;}
	.st100{fill:#0AAFF1;stroke:#0AAFF1;stroke-width:6;stroke-linecap:round;stroke-linejoin:round;stroke-miterlimit:10;}
	.st101{fill:#00D06F;}
	.st102{fill:none;stroke:#0AAFF1;stroke-width:2.5;stroke-linecap:round;stroke-linejoin:round;stroke-miterlimit:10;}
	.st103{fill:#FFFF00;stroke:#000000;stroke-width:3;stroke-miterlimit:10;}
	.st104{fill:#53FC00;}
	.st105{fill:#80A51B;}
	.st106{fill:none;stroke:#80A51B;stroke-width:0.999;}
	.st107{fill:none;stroke:#000000;stroke-width:0.75;stroke-miterlimit:10;}
	.st108{opacity:0.4;}
	.st109{fill:#0078D4;}
	.st110{fill:#45D7FA;}
	.st111{fill:#189AE1;}
	.st112{fill:none;stroke:#606060;stroke-width:13;stroke-linecap:round;stroke-linejoin:round;stroke-miterlimit:10;}
	.st113{fill:none;stroke:#FFFFFF;stroke-width:7;stroke-linecap:round;stroke-linejoin:round;stroke-miterlimit:10;}
	.st114{fill:#FFFFFF;stroke:#FFFFFF;stroke-miterlimit:10;}
	.st115{fill:#DADADA;}
	.st116{fill:none;stroke:#20FF77;stroke-miterlimit:10;}
	.st117{fill:#0AAFF1;stroke:#0AAFF1;stroke-width:6;stroke-miterlimit:10;}
	.st118{fill:none;stroke:#FFFFFF;stroke-width:3;stroke-miterlimit:10;}
	.st119{fill:#FFFFFF;stroke:#FFFFFF;stroke-width:2;stroke-miterlimit:10;}
	.st120{fill:none;stroke:#FFFFFF;stroke-width:2.5;stroke-miterlimit:10;}
	.st121{fill:none;stroke:#0AAFF1;stroke-width:2.25;stroke-linecap:round;stroke-linejoin:round;stroke-miterlimit:10;}
	.st122{fill:#121212;}
	.st123{fill:#006F95;}
	.st124{clip-path:url(#SVGID_00000106830069484058906150000016733159694460292498_);}
	.st125{fill:#51A2FF;}
	.st126{opacity:0.55;}
	.st127{fill:#00484B;}
	.st128{fill:#1D1D1D;}
	.st129{fill:#F8CEB0;}
	.st130{fill:#CB6858;}
	.st131{opacity:0.35;fill:#FFFFFF;}
	.st132{opacity:0.5;fill:#FFFFFF;}
	.st133{fill:#EC0016;}
	.st134{fill:#009D41;}
	.st135{fill:#C0C0C0;}
	.st136{opacity:0.2;}
	.st137{fill:#3C3C3B;}
	.st138{fill:#B2B2B2;}
	.st139{fill:#878787;}
	.st140{fill:#FF3800;}
</style>
<g>
	<path id="XMLID_00000124162177980304367980000017065828715626303886_" class="st2" d="M25,13.86c-6.15,0-11.14,4.99-11.14,11.14
		c0,7.07,5.48,7.95,5.92,14.37c0.03,0.48,0.43,0.86,0.92,0.86h8.6c0.48,0,0.88-0.37,0.92-0.86c0.45-6.43,5.92-7.33,5.92-14.37
		C36.14,18.85,31.15,13.86,25,13.86z M25,18.07c-3.82,0-6.92,3.11-6.92,6.92c0,0.49-0.4,0.89-0.89,0.89c-0.49,0-0.89-0.4-0.89-0.89
		c0-4.79,3.9-8.69,8.69-8.69c0.49,0,0.89,0.4,0.89,0.89C25.89,17.68,25.49,18.07,25,18.07z"/>
	<path id="XMLID_00000100378944652078522940000011181343270966848161_" class="st2" d="M29.1,41.28H20.9c-0.6,0-1.08,0.48-1.08,1.08
		v0c0,0.6,0.48,1.08,1.08,1.08h8.21c0.6,0,1.08-0.48,1.08-1.08v0C30.18,41.76,29.7,41.28,29.1,41.28z"/>
	<path id="XMLID_00000064313270313803222090000010165652276290549381_" class="st2" d="M29.1,44.49H20.9c-0.6,0-1.08,0.48-1.08,1.08
		v0c0,0.6,0.48,1.08,1.08,1.08h8.21c0.6,0,1.08-0.48,1.08-1.08v0C30.18,44.97,29.7,44.49,29.1,44.49z"/>
	<path id="XMLID_00000054224951200680745440000004877159067077204871_" class="st2" d="M23.06,49.85h3.89
		c1.19,0,2.16-0.97,2.16-2.16H20.9C20.9,48.89,21.86,49.85,23.06,49.85z"/>
	<path id="XMLID_00000111154237789496456850000006227079465645173422_" class="st2" d="M48.89,23.89h-5.63
		c-0.61,0-1.11,0.5-1.11,1.11c0,0.61,0.5,1.11,1.11,1.11h5.63c0.61,0,1.11-0.5,1.11-1.11C50,24.39,49.5,23.89,48.89,23.89z"/>
	<path id="XMLID_00000114038406083842480870000016193521081598718600_" class="st2" d="M37.92,13.19c0.28,0,0.57-0.11,0.78-0.32
		l3.98-3.98c0.43-0.43,0.43-1.13,0-1.57c-0.43-0.43-1.13-0.43-1.57,0l-3.98,3.98c-0.43,0.43-0.43,1.13,0,1.57
		C37.35,13.08,37.63,13.19,37.92,13.19z"/>
	<path id="XMLID_00000040547281744670624270000016568665774100516512_" class="st2" d="M25,7.84c0.61,0,1.11-0.5,1.11-1.11V1.11
		C26.11,0.5,25.61,0,25,0c-0.61,0-1.11,0.5-1.11,1.11v5.63C23.89,7.34,24.39,7.84,25,7.84z"/>
	<path id="XMLID_00000026858225014843867720000007833447237659950240_" class="st2" d="M8.89,7.32c-0.43-0.43-1.13-0.43-1.57,0
		c-0.43,0.43-0.43,1.13,0,1.57l3.98,3.98c0.22,0.22,0.5,0.32,0.78,0.32c0.28,0,0.57-0.11,0.78-0.32c0.43-0.43,0.43-1.13,0-1.57
		L8.89,7.32z"/>
	<path id="XMLID_00000144298299399589328790000002077518639317825689_" class="st2" d="M7.84,25c0-0.61-0.5-1.11-1.11-1.11H1.11
		C0.5,23.89,0,24.39,0,25c0,0.61,0.5,1.11,1.11,1.11h5.63C7.34,26.11,7.84,25.61,7.84,25z"/>
	<path id="XMLID_00000047052004819492472260000013591925722549507714_" class="st2" d="M11.3,37.13l-3.98,3.98
		c-0.43,0.43-0.43,1.13,0,1.57C7.54,42.89,7.82,43,8.1,43s0.57-0.11,0.78-0.32l3.98-3.98c0.43-0.43,0.43-1.13,0-1.57
		C12.43,36.7,11.73,36.7,11.3,37.13z"/>
	<path id="XMLID_00000040568647887768259640000011399140660888299695_" class="st2" d="M38.7,37.13c-0.43-0.43-1.13-0.43-1.57,0
		c-0.43,0.43-0.43,1.13,0,1.57l3.98,3.98c0.22,0.22,0.5,0.32,0.78,0.32s0.57-0.11,0.78-0.32c0.43-0.43,0.43-1.13,0-1.57L38.7,37.13z
		"/>
</g>
</svg>
