<?xml version="1.0" encoding="utf-8"?>
<!-- Generator: Adobe Illustrator 26.2.1, SVG Export Plug-In . SVG Version: 6.00 Build 0)  -->
<svg version="1.1" id="Capa_1" xmlns="http://www.w3.org/2000/svg" xmlns:xlink="http://www.w3.org/1999/xlink" x="0px" y="0px"
	 viewBox="0 0 450 125" style="enable-background:new 0 0 450 125;" xml:space="preserve">
<style type="text/css">
	.st0{fill:#CFCFCF;}
	.st1{fill:#B6C932;}
	.st2{fill:#A0A0A0;}
	.st3{fill:#FFFFFF;}
</style>
<g>
	<path class="st0" d="M47.43,47.09v38.2H37.41v-38.2H24.47v-7.37h35.85v7.37H47.43z"/>
	<path class="st0" d="M63.55,62.5c0-3.6,0.5-6.84,1.49-9.73c0.99-2.89,2.41-5.36,4.24-7.39c1.83-2.03,4.05-3.6,6.67-4.69
		c2.61-1.09,5.53-1.64,8.75-1.64c3.24,0,6.16,0.55,8.76,1.64c2.6,1.1,4.83,2.66,6.67,4.69c1.84,2.03,3.26,4.5,4.26,7.39
		c0.99,2.89,1.49,6.14,1.49,9.73c0,3.62-0.5,6.88-1.49,9.77c-0.99,2.89-2.41,5.36-4.26,7.39c-1.84,2.03-4.07,3.59-6.67,4.67
		c-2.6,1.08-5.52,1.63-8.76,1.63c-3.22,0-6.13-0.54-8.75-1.63s-4.84-2.64-6.67-4.67c-1.83-2.03-3.25-4.5-4.24-7.39
		C64.04,69.38,63.55,66.12,63.55,62.5z M73.6,62.5c0,2.59,0.26,4.89,0.77,6.89c0.51,2,1.25,3.69,2.19,5.06
		c0.95,1.37,2.11,2.42,3.48,3.13c1.37,0.72,2.92,1.07,4.64,1.07c1.74,0,3.31-0.36,4.69-1.07c1.38-0.71,2.55-1.76,3.5-3.13
		c0.95-1.37,1.68-3.06,2.18-5.06c0.5-2,0.75-4.29,0.75-6.89c0-2.59-0.25-4.89-0.75-6.89c-0.5-2-1.23-3.69-2.18-5.06
		c-0.95-1.37-2.12-2.42-3.5-3.13c-1.39-0.71-2.95-1.07-4.69-1.07c-1.72,0-3.27,0.36-4.64,1.07c-1.37,0.72-2.54,1.76-3.48,3.13
		c-0.95,1.37-1.68,3.06-2.19,5.06C73.85,57.61,73.6,59.91,73.6,62.5z"/>
	<path class="st0" d="M132.98,60.36h17.59v22.25c-2.37,1.07-4.82,1.9-7.36,2.48c-2.54,0.58-5.3,0.87-8.29,0.87
		c-3.55,0-6.74-0.63-9.57-1.88c-2.83-1.25-5.22-2.95-7.17-5.09c-1.95-2.14-3.45-4.63-4.49-7.47c-1.04-2.84-1.56-5.84-1.56-9.01
		c0-3.33,0.56-6.42,1.69-9.28c1.13-2.86,2.74-5.34,4.84-7.44c2.1-2.1,4.66-3.75,7.67-4.94c3.02-1.19,6.42-1.79,10.22-1.79
		c2.46,0,4.66,0.21,6.6,0.64c1.94,0.43,3.62,0.95,5.03,1.57l-1.44,6.74c-1.27-0.42-2.74-0.8-4.41-1.14c-1.66-0.34-3.49-0.5-5.48-0.5
		c-2.35,0-4.43,0.36-6.27,1.09c-1.83,0.73-3.37,1.78-4.62,3.15c-1.25,1.37-2.21,3.07-2.86,5.08c-0.66,2.01-0.99,4.29-0.99,6.84
		c0,2.3,0.3,4.43,0.9,6.4c0.6,1.97,1.48,3.67,2.65,5.11c1.16,1.44,2.59,2.57,4.29,3.4c1.7,0.83,3.64,1.24,5.83,1.24
		c1.01,0,1.98-0.06,2.92-0.17c0.94-0.11,1.83-0.3,2.68-0.57V67.66h-8.41V60.36z"/>
	<path class="st0" d="M185.55,75.77H169.1l-3.08,9.52h-9.85l15.72-45.57h10.89l15.75,45.57h-9.85L185.55,75.77z M171.48,68.4h11.69
		l-5.86-17.96L171.48,68.4z"/>
	<path class="st0" d="M215.17,66.05v19.23h-10.02V39.71h27.91v7.37h-17.89v11.59h15.68v7.37H215.17z"/>
	<path class="st1" d="M274.48,47.56v-8.51H243.1v8.51h11.33v25.11c0,6.55,5.33,11.88,11.88,11.88h3.04v-8.51h-3.04
		c-1.86,0-3.37-1.51-3.37-3.37V47.56H274.48z"/>
	<g>
		<path class="st1" d="M417.83,39.08c1.1,0,2.12,0.18,3.06,0.54c0.94,0.36,1.75,0.87,2.44,1.54c0.69,0.67,1.23,1.48,1.62,2.43
			c0.39,0.95,0.58,2.02,0.58,3.2c0,1.18-0.19,2.25-0.58,3.2c-0.39,0.95-0.93,1.76-1.62,2.43c-0.69,0.67-1.5,1.18-2.44,1.54
			c-0.94,0.36-1.96,0.54-3.06,0.54s-2.12-0.18-3.07-0.54c-0.94-0.36-1.76-0.87-2.45-1.54c-0.69-0.67-1.23-1.48-1.62-2.43
			c-0.39-0.95-0.59-2.02-0.59-3.2c0-1.18,0.2-2.25,0.59-3.2c0.39-0.95,0.93-1.76,1.62-2.43c0.69-0.67,1.5-1.18,2.45-1.54
			C415.7,39.26,416.73,39.08,417.83,39.08z M417.83,53.45c0.88,0,1.71-0.13,2.49-0.4c0.78-0.27,1.46-0.68,2.03-1.23
			c0.58-0.55,1.03-1.24,1.37-2.08c0.34-0.83,0.51-1.82,0.51-2.95c0-1.13-0.17-2.11-0.51-2.95c-0.34-0.83-0.79-1.53-1.37-2.08
			c-0.58-0.55-1.25-0.96-2.03-1.23c-0.78-0.27-1.61-0.4-2.49-0.4c-0.89,0-1.72,0.13-2.5,0.4c-0.78,0.27-1.46,0.68-2.03,1.23
			c-0.58,0.55-1.03,1.24-1.37,2.08c-0.33,0.83-0.5,1.82-0.5,2.95c0,1.13,0.17,2.11,0.5,2.95c0.33,0.83,0.79,1.53,1.37,2.08
			c0.58,0.55,1.25,0.96,2.03,1.23C416.1,53.31,416.94,53.45,417.83,53.45z M414.74,42.67h3.28c0.44,0,0.86,0.05,1.24,0.15
			c0.39,0.1,0.73,0.25,1.01,0.46c0.29,0.21,0.51,0.47,0.68,0.79c0.17,0.32,0.25,0.7,0.25,1.14c0,0.25-0.05,0.48-0.14,0.69
			c-0.1,0.21-0.23,0.41-0.39,0.58c-0.17,0.17-0.36,0.32-0.58,0.46c-0.22,0.13-0.46,0.24-0.71,0.33l1.97,3.36h-1.37l-1.82-3.13h-2.08
			v3.13h-1.34V42.67z M416.09,43.75v2.67h2.42c0.15-0.02,0.3-0.06,0.46-0.11c0.16-0.05,0.31-0.12,0.45-0.21
			c0.14-0.09,0.25-0.21,0.34-0.35s0.13-0.32,0.13-0.53c0-0.53-0.18-0.9-0.53-1.12c-0.35-0.22-0.86-0.33-1.53-0.33H416.09z"/>
	</g>
	<path class="st1" d="M346.95,84.54h-8.51v-19.7c0-3.55-2.89-6.44-6.44-6.44c-3.55,0-6.44,2.89-6.44,6.44v19.7h-8.51v-19.7
		c0-8.25,6.71-14.95,14.95-14.95c8.25,0,14.96,6.71,14.96,14.95V84.54z"/>
	<path class="st1" d="M310.17,69.26H283c0.39,2.4,1.44,4.3,3.14,5.72c1.7,1.41,3.88,2.12,6.52,2.12c3.16,0,5.88-1.1,8.15-3.32
		l7.13,3.35c-1.78,2.52-3.9,4.38-6.38,5.59c-2.48,1.21-5.42,1.81-8.83,1.81c-5.29,0-9.59-1.67-12.92-5
		c-3.33-3.33-4.99-7.51-4.99-12.53c0-5.14,1.66-9.41,4.97-12.81c3.31-3.4,7.47-5.1,12.47-5.1c5.31,0,9.62,1.7,12.95,5.1
		c3.32,3.4,4.99,7.89,4.99,13.46L310.17,69.26z M301.71,62.6c-0.56-1.88-1.66-3.41-3.31-4.59s-3.55-1.77-5.73-1.77
		c-2.36,0-4.43,0.66-6.21,1.98c-1.12,0.83-2.15,2.28-3.1,4.37H301.71z"/>
	<path class="st1" d="M365.09,51.29v-12.2h-8.51v12.2H350l0,0v6.66v0h6.58v14.71c0,6.55,5.33,11.88,11.88,11.88h3.21v-8.51h-3.21
		c-1.86,0-3.37-1.51-3.37-3.37V57.95h6.58v0v-6.66l0,0H365.09z"/>
	<g>
		<path class="st1" d="M392.38,49.06c-9.78,0-17.74,7.96-17.74,17.74c0,9.78,7.96,17.74,17.74,17.74c9.78,0,17.74-7.96,17.74-17.74
			C410.12,57.02,402.17,49.06,392.38,49.06z"/>
		<path class="st3" d="M391.96,72.51c-0.53-0.46-1.19-0.73-1.89-0.79l-7.92-0.62l15.76-15.54l0.08,22.13L391.96,72.51z"/>
	</g>
</g>
</svg>
